<svg xmlns="http://www.w3.org/2000/svg" xmlns:xlink="http://www.w3.org/1999/xlink" width="17" height="16" viewBox="0 0 17 16"><defs><path id="jp0ea" d="M927 2822a7 7 0 1 1-13.98 0 7 7 0 0 1 13.99 0zm-5.64-1.47c.17.37.33.74.48 1.13 1.21-.11 2.72-.11 3.98-.05a5.8 5.8 0 0 0-1.37-3.38c-.61.9-1.69 1.7-3.09 2.3zm-2.79-4.17c.83.85 1.61 1.93 2.3 3.18a7.2 7.2 0 0 0 2.86-2.02 5.81 5.81 0 0 0-5.16-1.16zm-4.21 4.2a15.38 15.38 0 0 0 5.33-.6 14.04 14.04 0 0 0-2.32-3.15 5.84 5.84 0 0 0-3.01 3.75zm-.19 1.44a5.8 5.8 0 0 0 1.46 3.85 8.71 8.71 0 0 1 4.97-4c-.12-.3-.25-.6-.4-.89a17.27 17.27 0 0 1-6.02.76v.28zm7.9 5.45a20.9 20.9 0 0 0-1.1-4.64c-.24.05-.46.12-.63.2a8.02 8.02 0 0 0-3.9 3.59 5.8 5.8 0 0 0 5.63.85zm3.73-4.8a25.1 25.1 0 0 0-3.6 0 20.95 20.95 0 0 1 .96 4.25 5.82 5.82 0 0 0 2.64-4.26z"/></defs><g><g transform="translate(-912 -2814)"><use fill="#b4bbc2" xlink:href="#jp0ea"/></g></g></svg>