<svg xmlns="http://www.w3.org/2000/svg" xmlns:xlink="http://www.w3.org/1999/xlink" width="23" height="18" viewBox="0 0 23 18"><defs><path id="v9lfa" d="M185 290.83v9.82c0 .75-.57 1.36-1.27 1.36h-17.47c-.7 0-1.27-.61-1.27-1.36v-9.82c0-.34.25-.6.56-.6.11 0 .21.02.3.08l8.42 7.14a1.2 1.2 0 0 0 1.44 0l8.43-7.14c.08-.06.18-.09.3-.09.3 0 .55.27.55.6zm-18.77-1.8a.63.63 0 0 1-.17-.44c0-.33.25-.6.56-.6h16.76c.3 0 .56.27.56.6 0 .16-.05.3-.14.4l-.13.12-8.08 6.68a.95.95 0 0 1-1.18 0z"/></defs><g><g transform="translate(-163 -286)"><use fill="#c6ccd2" xlink:href="#v9lfa"/></g></g></svg>