<svg xmlns="http://www.w3.org/2000/svg" xmlns:xlink="http://www.w3.org/1999/xlink" width="18" height="17" viewBox="0 0 18 17"><defs><path id="ff7fa" d="M725 87.44h-2.3v2.09l-.7-.02v-2.07h-2.3v-.69h2.3v-2.3h.7v2.3h2.3zm-7.67 4.62c1.17.8 1.55 1.56 1.55 2.82 0 1.56-1.55 3.12-4.35 3.12-2.46 0-4.53-.98-4.53-2.55 0-1.59 1.89-3.12 4.35-3.12h.76c-.33-.33-.6-.72-.6-1.2 0-.3.1-.57.23-.81h-.41c-2.02 0-3.37-1.4-3.37-3.14 0-1.7 1.86-3.18 3.85-3.18 1.1 0 4 .46 4 .46l-.57.24h-1.4c.93.35 1.42 1.41 1.42 2.5 0 .92-.52 1.7-1.25 2.27-.71.55-.85.77-.85 1.24 0 .4.77 1.07 1.17 1.35zm-.66-4.77c-.2-1.47-1.28-2.64-2.42-2.68-1.14-.03-1.9 1.1-1.7 2.56.2 1.47 1.27 2.68 2.41 2.72 1.14.03 1.9-1.13 1.71-2.6zm1.07 7.76c0-.15-.02-.3-.06-.45-.18-.71-.84-1.07-1.77-1.7-.33-.1-.7-.16-1.1-.17-1.7-.02-3.22 1.02-3.22 2.26 0 1.26 1.23 2.32 2.93 2.32 2.39 0 3.22-1 3.22-2.26z"/></defs><g><g transform="translate(-708 -82)"><use fill="#383737" xlink:href="#ff7fa"/></g></g></svg>