<svg xmlns="http://www.w3.org/2000/svg" xmlns:xlink="http://www.w3.org/1999/xlink" width="18" height="15" viewBox="0 0 18 15"><defs><path id="ntqqa" d="M143.92 3277.33a3.72 3.72 0 0 0-4.61 1.33l-.01.01a.37.37 0 0 1-.31.16.37.37 0 0 1-.3-.16h-.01l-.01-.01a3.72 3.72 0 0 0-4.62-1.33c-1.8.8-2.56 2.8-1.72 4.49.67 1.33 4.43 4.61 5.98 5.94.18.15.42.25.68.25.26 0 .5-.1.67-.25 1.55-1.32 5.31-4.61 5.98-5.94.85-1.69.08-3.7-1.72-4.49z"/></defs><g><g transform="translate(-130 -3275)"><use fill="#fff" xlink:href="#ntqqa"/></g></g></svg>