<svg xmlns="http://www.w3.org/2000/svg" xmlns:xlink="http://www.w3.org/1999/xlink" width="15" height="15" viewBox="0 0 15 15"><defs><path id="52xva" d="M1048.73 2562h-2.57v-8.09h2.57zm-1.29-9.2h-.01c-.87 0-1.42-.62-1.42-1.4 0-.79.57-1.4 1.45-1.4s1.42.61 1.44 1.4c0 .78-.56 1.4-1.46 1.4zm2.71 9.2s.04-7.33 0-8.09h2.58v1.15c.34-.55.95-1.34 2.31-1.34 1.7 0 2.97 1.16 2.97 3.64v4.65h-2.58v-4.33c0-1.1-.37-1.83-1.3-1.83-.71 0-1.13.5-1.32.98-.07.17-.08.41-.08.66v4.52z"/></defs><g><g opacity=".5" transform="translate(-1045 -2549)"><use fill="#fff" xlink:href="#52xva"/></g></g></svg>