<svg xmlns="http://www.w3.org/2000/svg" xmlns:xlink="http://www.w3.org/1999/xlink" width="17" height="20" viewBox="0 0 17 20"><defs><path id="e6uba" d="M181.99 365.19v8.5c0 .72-.66 1.3-1.48 1.3h-11.04c-.81 0-1.47-.58-1.47-1.3v-8.5c0-.65.54-1.19 1.24-1.29h.08c.31-.05.55-.3.55-.58v-1.8c0-2.49 2.3-4.51 5.12-4.51 2.83 0 5.13 2.02 5.13 4.52v1.79c0 .28.23.53.54.58a.7.7 0 0 0 .08 0c.7.1 1.25.64 1.25 1.29zm-9.65-1.9c0 .34.3.6.67.6h3.97c.37 0 .67-.26.67-.6v-1.76c0-1.3-1.2-2.34-2.66-2.34-1.46 0-2.65 1.04-2.65 2.34z"/></defs><g><g transform="translate(-166 -356)"><use fill="#c6ccd2" xlink:href="#e6uba"/></g></g></svg>