<svg xmlns="http://www.w3.org/2000/svg" xmlns:xlink="http://www.w3.org/1999/xlink" width="22" height="21" viewBox="0 0 22 21"><defs><path id="wmvka" d="M874.54 704.49c-.62.63-1.67.7-2.27.06a95.97 95.97 0 0 0-3.93-4.22c-.2-.16-.45-.26-.73-.26h-.06a1.15 1.15 0 0 0-.5.14c-.94.46-1.98.72-3.1.72h-.04a6.97 6.97 0 1 1 6.2-3.7 1.16 1.16 0 0 0 .41 1.38 171.54 171.54 0 0 0 4.04 3.6c.6.57.6 1.65-.02 2.28zm-5.71-8.72a5.16 5.16 0 0 0-1.18-5.45 5.16 5.16 0 0 0-3.66-1.54h-.03a5.2 5.2 0 0 0-.03 10.37h.03a5.17 5.17 0 0 0 4.87-3.38z"/></defs><g><g transform="translate(-855 -686)"><use fill="#383737" xlink:href="#wmvka"/></g></g></svg>