<svg xmlns="http://www.w3.org/2000/svg" xmlns:xlink="http://www.w3.org/1999/xlink" width="14" height="14" viewBox="0 0 14 14"><defs><path id="f4jfa" d="M226.94 3285c-.29 0-.57.06-.82.17h-.01a1 1 0 0 1-.87-.01 1.16 1.16 0 0 1-.12-.07l-2.6-1.52h-.02l-.03-.02a.64.64 0 0 1-.3-.54c0-.24.12-.44.31-.56l2.66-1.54.08-.05a1 1 0 0 1 .9-.02c.25.1.53.17.82.17 1.14 0 2.06-.9 2.06-2s-.92-2-2.06-2c-1.08 0-1.97.81-2.05 1.84a.95.95 0 0 1-.53.8l-2.45 1.43a1 1 0 0 1-.6.19 1 1 0 0 1-.47-.12c-.24-.1-.5-.14-.77-.14-1.14 0-2.06.9-2.06 2s.92 2 2.06 2c.29 0 .57-.07.82-.17l.02-.01a1 1 0 0 1 .9.04l.04.02 2.5 1.46.1.06c.25.16.42.43.44.75a2.04 2.04 0 0 0 2.05 1.84c1.14 0 2.06-.9 2.06-2s-.92-2-2.06-2z"/></defs><g><g transform="translate(-217 -3276)"><use fill="#fff" xlink:href="#f4jfa"/></g></g></svg>