<svg xmlns="http://www.w3.org/2000/svg" xmlns:xlink="http://www.w3.org/1999/xlink" width="17" height="14" viewBox="0 0 17 14"><defs><path id="56w3a" d="M680 86.3a5.9 5.9 0 0 1-1.65.43 2.8 2.8 0 0 0 1.26-1.53c-.55.32-1.17.55-1.82.67a2.91 2.91 0 0 0-2.1-.87 2.83 2.83 0 0 0-2.8 3.4 8.25 8.25 0 0 1-5.92-2.9 2.7 2.7 0 0 0-.38 1.4c0 .96.5 1.81 1.27 2.31a2.93 2.93 0 0 1-1.3-.35v.04a2.8 2.8 0 0 0 2.3 2.72 2.97 2.97 0 0 1-1.3.05 2.86 2.86 0 0 0 2.7 1.93 5.89 5.89 0 0 1-4.26 1.15 8.33 8.33 0 0 0 4.4 1.25 7.98 7.98 0 0 0 8.17-8.26c.56-.4 1.04-.89 1.43-1.44z"/></defs><g><g transform="translate(-664 -83)"><use fill="#383737" xlink:href="#56w3a"/></g></g></svg>