<svg xmlns="http://www.w3.org/2000/svg" xmlns:xlink="http://www.w3.org/1999/xlink" width="18" height="16" viewBox="0 0 18 16"><defs><path id="fxoqa" d="M964.94 2819.23c.1-.59.1-1.19-.26-1.64-.5-.63-1.58-.66-2.31-.54-.6.09-2.63.97-3.32 3.1 1.22-.09 1.86.09 1.74 1.43a4.88 4.88 0 0 1-.65 1.75c-.36.68-1.05 2.01-1.95 1.05-.82-.86-.75-2.5-.94-3.6-.1-.62-.21-1.4-.42-2.03-.17-.54-.57-1.2-1.06-1.34-.53-.15-1.18.09-1.57.31-1.22.71-2.15 1.73-3.2 2.56v.08c.2.2.26.52.57.57.73.1 1.42-.67 1.9.14.3.5.39 1.03.58 1.57.25.7.44 1.48.65 2.3.35 1.38.77 3.45 1.98 3.96.61.26 1.54-.09 2-.37a11.15 11.15 0 0 0 3.1-2.92c1.94-2.6 3-5.54 3.16-6.38z"/></defs><g><g transform="translate(-949 -2815)"><use fill="#b4bbc2" xlink:href="#fxoqa"/></g></g></svg>